<svg width="1646" height="420" viewBox="0 0 1646 420" fill="none" xmlns="http://www.w3.org/2000/svg">
<path d="M1340.68 218.652C1340.68 218.652 1329.35 219.056 1319.53 214.929C1309.71 210.804 1296.26 207.043 1298.48 192.712C1299.85 183.9 1321.04 188.427 1321.04 188.427C1321.04 188.427 1336.55 194.153 1346.85 193.571" fill="#F4D6B9"/>
<path d="M1340.68 220.128C1329.66 220.442 1319.34 216.874 1309.49 212.294C1304.97 210.199 1300.85 207.293 1298.41 202.874C1296.49 199.409 1295.61 193.022 1298.2 189.684C1302.76 183.831 1313.48 185.657 1319.77 186.694C1328.98 188.215 1337.18 192.414 1346.85 192.095C1348.75 192.032 1348.75 194.984 1346.85 195.047C1332.45 195.522 1319.23 186.355 1304.76 189.224C1298.81 190.405 1298.82 196.667 1300.96 201.384C1302.96 205.808 1307.84 208.287 1312.01 210.226C1321.04 214.422 1330.61 217.463 1340.68 217.176C1342.58 217.121 1342.58 220.074 1340.68 220.128Z" fill="#1D1D1D"/>
<path d="M1443.09 27.2316C1443.09 27.2316 1442.84 1.40052 1429.07 1.64653C1415.29 1.89254 1420.95 31.6598 1420.95 31.6598" fill="#B7D9D5"/>
<path d="M1441.61 27.2317C1441.51 19.3121 1438.95 0.405704 1427.19 3.41982C1418.3 5.69788 1421.17 24.8316 1422.37 31.2672C1422.72 33.128 1419.88 33.9222 1419.53 32.0525C1417.87 23.1794 1415.24 3.43163 1427.11 0.390942C1440.85 -3.12799 1444.44 18.021 1444.57 27.2317C1444.59 29.1368 1441.64 29.1338 1441.61 27.2317Z" fill="#1D1D1D"/>
<path d="M1436.99 385.261C1436.99 385.261 1417.56 418.84 1407.11 412.261C1396.65 405.682 1420.58 377.347 1420.58 377.347" fill="#F4D6B9"/>
<path d="M1438.27 386.006C1434.79 391.981 1430.78 397.693 1426.39 403.026C1422.14 408.193 1414.54 417.076 1406.89 413.831C1399.27 410.596 1404.51 399.314 1407 394.53C1410.38 388.028 1414.82 381.908 1419.54 376.303C1420.77 374.844 1422.84 376.944 1421.63 378.391C1417.84 382.887 1397.93 408.154 1409.13 411.532C1415.69 413.51 1423.9 401.62 1427.08 397.432C1430.21 393.32 1433.12 388.985 1435.72 384.516C1436.67 382.871 1439.23 384.357 1438.27 386.006Z" fill="#1D1D1D"/>
<path d="M1605.46 321.706C1618.5 320.23 1618.5 318.508 1625.14 320.23C1631.78 321.952 1649.74 333.022 1642.85 338.188C1635.96 343.355 1635.22 345.077 1626.12 343.601C1617.02 342.124 1598.08 337.942 1598.08 337.942" fill="#B7D9D5"/>
<path d="M1605.46 320.23C1614.16 319.19 1621.21 316.655 1629.56 320.329C1634.85 322.66 1646.68 328.817 1645.8 336.077C1645.38 339.586 1640.28 342.154 1637.68 343.835C1633.8 346.339 1629.08 345.58 1624.79 344.867C1615.7 343.359 1606.68 341.348 1597.68 339.365C1595.83 338.956 1596.61 336.11 1598.47 336.519C1604.45 337.837 1610.44 339.1 1616.44 340.304C1621.06 341.232 1625.75 342.293 1630.46 342.616C1635.16 342.939 1639.02 339.567 1642.37 336.659C1647 332.63 1628.74 323.065 1626.07 322.066C1619.5 319.607 1612.12 322.386 1605.46 323.182C1603.57 323.407 1603.59 320.453 1605.46 320.23Z" fill="#1D1D1D"/>
<path d="M1289.48 106.602C1289.48 129.971 1309.44 148.916 1334.06 148.916C1358.68 148.916 1378.64 129.971 1378.64 106.602C1378.64 83.2331 1358.68 64.2883 1334.06 64.2883C1309.44 64.2883 1289.48 83.2331 1289.48 106.602Z" fill="white"/>
<path d="M1290.95 106.602C1291.34 130.043 1311.26 147.103 1334.06 147.44C1356.86 147.776 1376.78 129.54 1377.16 106.602C1377.54 83.1612 1356.27 66.092 1334.06 65.7643C1311.25 65.4278 1291.33 83.664 1290.95 106.602C1290.92 108.504 1287.97 108.507 1288 106.602C1288.35 85.4678 1303.69 68.4291 1324.01 63.8592C1344.54 59.2431 1366.44 69.4702 1375.87 88.228C1385.22 106.821 1378.36 128.79 1362.39 141.117C1345.81 153.912 1320.54 153.316 1304.4 140.098C1294.2 131.742 1288.22 119.819 1288 106.602C1287.97 104.697 1290.92 104.7 1290.95 106.602Z" fill="#1D1D1D"/>
<path d="M1289.48 106.127C1289.48 112.289 1294.62 117.284 1300.96 117.284C1307.3 117.284 1312.44 112.289 1312.44 106.127C1312.44 99.9645 1307.3 94.9695 1300.96 94.9695C1294.62 94.9695 1289.48 99.9645 1289.48 106.127Z" fill="#1D1D1D"/>
<path d="M1289.48 106.127C1289.48 112.289 1294.62 117.284 1300.96 117.284C1307.3 117.284 1312.44 112.289 1312.44 106.127C1312.44 99.9645 1307.3 94.9695 1300.96 94.9695C1294.62 94.9695 1289.48 99.9645 1289.48 106.127Z" stroke="#2B2B2A" stroke-width="1.33333" stroke-miterlimit="10"/>
<path d="M1298.17 105.29C1298.17 107.296 1299.8 108.922 1301.82 108.922C1303.83 108.922 1305.47 107.296 1305.47 105.29C1305.47 103.284 1303.83 101.658 1301.82 101.658C1299.8 101.658 1298.17 103.284 1298.17 105.29Z" fill="white"/>
<path d="M1298.17 105.29C1298.17 107.296 1299.8 108.922 1301.82 108.922C1303.83 108.922 1305.47 107.296 1305.47 105.29C1305.47 103.284 1303.83 101.658 1301.82 101.658C1299.8 101.658 1298.17 103.284 1298.17 105.29Z" stroke="#2B2B2A" stroke-width="1.33333" stroke-miterlimit="10"/>
<path d="M1593.29 112.843C1592.4 100.044 1571.64 55.7689 1536.22 40.0243C1500.79 24.2796 1487.02 24.2796 1452.57 21.3275C1418.13 18.3754 1365.98 48.8806 1356.14 61.6732C1346.3 74.4657 1339.41 86.0744 1337.44 103.395C1335.47 120.716 1335.47 128.588 1332.52 146.301C1329.57 164.013 1333.5 231.912 1344.33 257.497C1351.49 274.414 1362.52 316.285 1386.52 348.972C1398.82 365.719 1414.53 380.056 1434.86 387.391C1494.89 409.04 1530.32 396.6 1539.17 396.247C1564.65 395.232 1569.94 387.911 1599.2 352.949C1616.9 331.793 1619.73 306.463 1619.73 288.741C1619.73 267.215 1590.2 216.168 1589.22 186.646C1587.47 134.144 1595.72 147.612 1593.29 112.843Z" fill="#B7D9D5"/>
<path d="M1591.82 112.843C1591.27 106.457 1588.3 100.073 1585.6 94.3709C1581.32 85.3433 1575.88 76.8343 1569.67 69.018C1562.67 60.1981 1554.37 52.3838 1544.87 46.3191C1533.95 39.3492 1520.97 34.8295 1508.64 31.0242C1498.18 27.7906 1487.4 26.0253 1476.52 24.8897C1465.22 23.7098 1453.5 22.0035 1442.13 22.8399C1420.15 24.4577 1398.36 34.4831 1379.62 45.5359C1372.56 49.7003 1365.5 54.3017 1359.6 60.0328C1351.88 67.5351 1345.82 78.5307 1342.24 88.5768C1337.85 100.889 1337.86 114.542 1336.55 127.431C1335.62 136.649 1333.65 145.752 1333.22 155.011C1332.33 174.094 1333.9 193.465 1336.12 212.404C1337.32 222.605 1338.92 232.788 1341.28 242.788C1343.05 250.249 1345.92 257.159 1348.55 264.323C1365.3 309.852 1383.45 364.655 1432.31 384.844C1455.33 394.358 1481.32 399.146 1506.21 398.593C1513.57 398.429 1520.91 397.654 1528.18 396.473C1532.19 395.82 1536.18 394.902 1540.25 394.724C1547.89 394.387 1555.4 393.158 1562.14 389.362C1569.69 385.108 1575.66 378.213 1581.32 371.802C1590.53 361.373 1600.43 350.778 1607.16 338.544C1613.32 327.343 1616.41 314.626 1617.66 301.982C1618.54 293.102 1618.44 284.775 1616.11 276.146C1613.47 266.343 1609.6 256.858 1605.91 247.419C1598.44 228.366 1589.1 208.339 1587.79 187.637C1586.87 173.176 1587.07 158.094 1589.86 143.823C1591.91 133.353 1592.54 123.551 1591.82 112.843C1591.69 110.942 1594.64 110.955 1594.77 112.843C1595.25 120.03 1595.53 127.267 1594.6 134.43C1593.99 139.083 1592.82 143.637 1592.04 148.261C1588.81 167.489 1589.22 188.598 1594.54 207.349C1600.52 228.46 1610.2 248.296 1617.07 269.106C1623.04 287.223 1621.81 305.966 1616.32 324.164C1612.6 336.498 1606 347.105 1597.79 356.923C1590.28 365.903 1582.92 375.132 1574.55 383.336C1569.59 388.203 1564.03 392.306 1557.49 394.758C1551.15 397.135 1544.57 397.11 1537.95 397.824C1525.4 399.175 1513.41 401.662 1500.66 401.591C1476.23 401.452 1450.68 396.048 1428.3 386.323C1382.45 366.403 1362.95 313.541 1347.45 269.94C1344.91 262.801 1341.81 255.851 1339.73 248.561C1337.11 239.358 1335.54 229.842 1334.2 220.379C1331.44 200.845 1329.95 180.978 1330.11 161.245C1330.17 153.623 1331.09 146.39 1332.2 138.863C1334.03 126.411 1334.41 113.792 1336.22 101.344C1338.99 82.2927 1349.26 63.6363 1364.66 51.9203C1380.75 39.6838 1399.93 30.5361 1419.17 24.5413C1428.86 21.5243 1439.02 19.5237 1449.19 19.6684C1460.78 19.8327 1472.71 21.3442 1484.21 22.8301C1498.32 24.6515 1511.81 28.4903 1525.03 33.7038C1539.43 39.3836 1552.05 46.332 1563.12 57.2647C1572.48 66.5058 1580.17 77.529 1586.28 89.1427C1590.07 96.3478 1594.07 104.604 1594.77 112.843C1594.93 114.742 1591.98 114.726 1591.82 112.843Z" fill="#1D1D1D"/>
<path d="M1564.13 384.93C1564.13 384.93 1574.46 416.173 1558.72 417.895C1542.97 419.617 1541.49 389.112 1541.49 389.112" fill="#F4D6B9"/>
<path d="M1565.55 384.538C1568.68 394.08 1574.07 417.102 1559.11 419.319C1544.43 421.494 1540.56 399.549 1540.02 389.112C1539.92 387.209 1542.87 387.219 1542.97 389.112C1543.44 398.144 1546.48 418.228 1559.17 416.346C1570.98 414.597 1565.04 392.464 1562.7 385.322C1562.11 383.508 1564.96 382.737 1565.55 384.538Z" fill="#1D1D1D"/>
<path d="M1567.27 380.659C1567.27 380.659 1564.94 392.345 1560.14 395.461C1560.14 395.461 1559.27 387.097 1558.45 386.769C1557.63 386.441 1546.48 395.624 1548.12 396.937C1549.76 398.25 1538.59 391.127 1538.6 387.882" fill="#B7D9D5"/>
<path d="M1568.69 381.051C1567.55 386.597 1565.58 393.196 1560.88 396.735C1559.89 397.485 1558.77 396.432 1558.66 395.461C1558.51 394.016 1558.32 392.575 1558.11 391.139C1557.97 390.241 1557.79 389.354 1557.59 388.471C1557.38 387.511 1558.86 388.02 1557.44 388.999C1556.21 389.843 1549.47 396.159 1549.31 396.025C1549.68 396.344 1549.86 397.001 1549.69 397.461C1549.69 397.47 1549.69 397.477 1549.68 397.486C1549.34 398.422 1548.42 398.809 1547.52 398.368C1544.05 396.682 1537.78 392.366 1537.17 388.274C1536.9 386.412 1539.74 385.612 1540.02 387.49C1540.5 390.728 1546.24 394.471 1549.01 395.819C1548.28 396.113 1547.56 396.406 1546.84 396.7C1546.54 397.513 1547.43 398.55 1546.7 397.468C1546.5 397.16 1546.5 396.78 1546.49 396.428C1546.46 395.392 1547.38 394.292 1547.99 393.568C1550.31 390.865 1553.07 388.538 1555.95 386.451C1561.34 382.529 1561.25 392.065 1561.61 395.461C1560.87 395.036 1560.13 394.611 1559.39 394.187C1563.35 391.2 1564.89 384.926 1565.84 380.267C1566.22 378.403 1569.07 379.193 1568.69 381.051Z" fill="#1D1D1D"/>
<path d="M1439.71 368.676C1460.05 357.739 1460.52 341.369 1444.63 321.002C1432.96 306.033 1419.7 291.153 1412.42 248.183C1408.55 225.345 1386.03 198.416 1365.15 200.011C1344.26 201.605 1334.44 223.789 1342.09 245.035C1349.74 266.281 1377.62 347.845 1397.68 358.368C1397.68 358.368 1421.21 378.624 1439.71 368.676Z" fill="#CFE9EC"/>
<path d="M1390.83 116.779C1390.83 144.497 1414.83 166.966 1444.43 166.966C1474.04 166.966 1498.03 144.497 1498.03 116.779C1498.03 89.0619 1474.04 66.5933 1444.43 66.5933C1414.83 66.5933 1390.83 89.0619 1390.83 116.779Z" fill="white"/>
<path d="M1392.31 116.779C1392.65 141.339 1411.5 160.345 1435.04 164.707C1459.11 169.167 1484.68 155.939 1493.61 132.971C1502.49 110.169 1490.68 85.5538 1469.97 74.3042C1448.33 62.5508 1420.3 67.8784 1404.01 86.0202C1396.44 94.4466 1392.47 105.531 1392.31 116.779C1392.28 118.682 1389.33 118.684 1389.36 116.779C1389.65 95.654 1402.98 77.6687 1422.21 69.5119C1441.88 61.1653 1465.11 65.0119 1481.45 78.5346C1497.54 91.8487 1503.47 114.198 1496.46 133.755C1489.42 153.399 1470.29 165.932 1450.09 168.165C1419.4 171.557 1389.8 148.229 1389.36 116.779C1389.33 114.874 1392.28 114.877 1392.31 116.779Z" fill="#2B2B2A"/>
<path d="M1411.44 109.563C1411.44 118.258 1419.22 125.307 1428.82 125.307C1438.42 125.307 1446.21 118.258 1446.21 109.563C1446.21 100.868 1438.42 93.8182 1428.82 93.8182C1419.22 93.8182 1411.44 100.868 1411.44 109.563Z" fill="#1D1D1D"/>
<path d="M1411.44 109.563C1411.44 118.258 1419.22 125.307 1428.82 125.307C1438.42 125.307 1446.21 118.258 1446.21 109.563C1446.21 100.868 1438.42 93.8182 1428.82 93.8182C1419.22 93.8182 1411.44 100.868 1411.44 109.563Z" stroke="#2B2B2A" stroke-width="1.33333" stroke-miterlimit="10"/>
<path d="M1428.82 104.989C1428.82 107.515 1430.88 109.563 1433.41 109.563C1435.95 109.563 1438.01 107.515 1438.01 104.989C1438.01 102.463 1435.95 100.415 1433.41 100.415C1430.88 100.415 1428.82 102.463 1428.82 104.989Z" fill="white"/>
<path d="M1428.82 104.989C1428.82 107.515 1430.88 109.563 1433.41 109.563C1435.95 109.563 1438.01 107.515 1438.01 104.989C1438.01 102.463 1435.95 100.415 1433.41 100.415C1430.88 100.415 1428.82 102.463 1428.82 104.989Z" stroke="#2B2B2A" stroke-width="1.33333" stroke-miterlimit="10"/>
<path d="M1549.86 67.5774L1569.21 42.9764C1569.21 42.9764 1578.89 27.3242 1563.8 21.1277C1548.71 14.9312 1538.38 26.904 1537.56 28.0514C1536.74 29.1998 1524.6 47.5689 1524.6 47.5689" fill="#B7D9D5"/>
<path d="M1548.82 66.5335C1553.77 60.2346 1558.72 53.9368 1563.68 47.6379C1567.72 42.5071 1571.79 37.9815 1570.61 30.5107C1569.28 22.0519 1557.76 19.9106 1550.87 21.3365C1546.47 22.2467 1541.58 25.1663 1538.83 28.7965C1534.14 34.9851 1530.16 41.834 1525.88 48.313C1524.83 49.8933 1522.27 48.4163 1523.33 46.8231C1527.83 40.0116 1531.84 32.092 1537.34 26.0402C1541.24 21.7389 1546.73 18.9147 1552.44 18.0734C1558.86 17.1277 1567.84 19.4008 1571.54 25.1929C1575.75 31.7742 1573.33 40.111 1568.82 45.842L1550.9 68.6206C1549.73 70.1164 1547.65 68.0115 1548.82 66.5335Z" fill="#1D1D1D"/>
<path d="M1552.32 36.2518C1552.32 36.2518 1552.42 45.1081 1548.43 49.0443C1544.45 52.9805 1540.84 55.7683 1538.87 54.2922C1536.9 52.8161 1542.31 41.9917 1544.61 40.68C1546.91 39.3682 1548.38 35.7598 1552.32 36.2518Z" fill="#1E1E1F"/>
<path d="M1553.8 36.2518C1553.81 40.675 1552.95 45.6001 1550.25 49.1948C1548.93 50.9514 1539.79 59.9947 1537.4 54.8265C1535.71 51.1698 1539.16 45.6985 1541.01 42.6953C1542.18 40.799 1543.62 39.8081 1545.19 38.3222C1547.37 36.2557 1549.14 34.635 1552.32 34.7757C1554.22 34.8593 1554.22 37.8115 1552.32 37.7278C1549.59 37.6068 1545.96 40.9013 1544.29 43.1026C1542.37 45.6366 1540.92 48.7707 1540.1 51.8281C1539.27 54.9318 1543.79 51.2594 1544.49 50.6886C1546.67 48.9016 1548.51 47.0487 1549.53 44.3947C1550.5 41.8559 1550.86 38.9618 1550.84 36.2518C1550.84 34.3476 1553.79 34.3486 1553.8 36.2518Z" fill="#2B2B2A"/>
<path d="M1332.8 114.302C1332.8 121.467 1340.88 127.276 1350.84 127.276C1360.81 127.276 1368.88 121.467 1368.88 114.302C1368.88 107.137 1360.81 101.328 1350.84 101.328C1340.88 101.328 1332.8 107.137 1332.8 114.302Z" fill="#9D9080"/>
<path d="M1334.28 114.302C1335.2 129.81 1366.49 129.81 1367.41 114.302C1367.89 106.154 1357.02 102.993 1350.84 102.805C1343.92 102.593 1334.75 106.423 1334.28 114.302C1334.17 116.193 1331.21 116.205 1331.33 114.302C1332.47 94.9558 1369.22 94.9558 1370.36 114.302C1370.94 124.176 1358.62 128.513 1350.84 128.752C1342.14 129.017 1331.89 123.839 1331.33 114.302C1331.21 112.399 1334.17 112.411 1334.28 114.302Z" fill="#1D1D1D"/>
<path d="M1364.09 144.893V169.248C1364.09 169.248 1365.45 172.634 1355.96 173.119C1346.46 173.604 1345.38 173.119 1345.38 173.119C1345.38 173.119 1340.49 174.731 1338.6 166.828C1336.7 158.926 1331.81 144.086 1331.81 144.086L1364.09 144.893Z" fill="white"/>
<path d="M1365.57 144.893V166.464C1365.57 168.474 1365.98 169.097 1365.45 170.738C1364.32 174.21 1358.81 174.383 1355.96 174.595C1352.64 174.842 1348.31 175.471 1345 174.548C1346.55 174.979 1344.09 174.726 1343.54 174.657C1341.91 174.451 1340.65 173.552 1339.56 172.375C1336.15 168.711 1335.59 161.207 1334.19 156.552C1332.98 152.511 1331.71 148.487 1330.39 144.479C1330.09 143.576 1330.88 142.587 1331.81 142.61C1342.57 142.879 1353.33 143.148 1364.09 143.417C1366 143.464 1366 146.416 1364.09 146.369C1353.33 146.101 1342.57 145.831 1331.81 145.562C1332.29 144.939 1332.76 144.316 1333.24 143.694C1335.7 151.203 1338.12 158.76 1340.02 166.436C1340.58 168.726 1341.71 171.728 1344.48 171.776C1344.93 171.784 1345.33 171.536 1345.79 171.701C1348.12 172.546 1351.79 171.819 1354.17 171.728C1356.31 171.644 1362.62 171.779 1362.62 169.199V162.647V144.893C1362.62 142.989 1365.57 142.989 1365.57 144.893Z" fill="#1D1D1D"/>
<path d="M1351.97 123.823C1351.97 123.823 1360.24 119.93 1368.77 122.061C1377.29 124.194 1387.3 133.049 1386.48 141.578C1385.66 150.108 1376.97 155.847 1371.72 156.012C1369.74 156.073 1365.1 157.815 1354.26 157.815C1344.57 157.815 1342.95 156.897 1337.21 156.667C1329.86 156.371 1324.65 150.763 1324.81 140.431C1324.98 130.098 1332.03 124.849 1339.57 125.341C1347.12 125.833 1351.97 123.823 1351.97 123.823Z" fill="#F4D6B9"/>
<path d="M1351.22 122.548C1364.78 116.395 1384.87 122.67 1387.85 138.747C1389.16 145.786 1383.78 152.253 1378.11 155.551C1373.43 158.272 1366.2 158.586 1360.93 159.046C1352.6 159.774 1344.4 158.701 1336.12 158.059C1329.04 157.51 1324.88 151.643 1323.67 145.152C1322.33 137.984 1324.39 130.504 1330.42 126.19C1336.53 121.822 1344.82 125.056 1351.58 122.4C1353.35 121.702 1354.11 124.558 1352.36 125.246C1347.96 126.977 1343.08 126.914 1338.45 126.787C1329.97 126.555 1326.23 134.656 1326.3 141.945C1326.38 149.482 1330.73 154.867 1338.3 155.246C1344.28 155.545 1350.1 156.378 1356.11 156.322C1366.44 156.224 1380.59 155.177 1384.55 143.784C1387.34 135.754 1379.16 128.613 1372.97 125.238C1366.9 121.926 1358.93 122.278 1352.71 125.098C1350.99 125.878 1349.49 123.334 1351.22 122.548Z" fill="#1D1D1D"/>
<path d="M1505.06 247.165C1505.06 247.165 1506.98 257.388 1505.06 266.973C1503.15 276.556 1497.4 290.612 1485.9 288.058C1474.39 285.501 1480.78 268.57 1480.78 268.57C1480.78 268.57 1484.3 254.833 1482.38 245.568" fill="#F4D6B9"/>
<path d="M1506.49 246.773C1508.26 256.629 1507.67 267.261 1503.71 276.536C1500.44 284.191 1492.64 293.606 1483.2 288.692C1476.56 285.238 1476.98 277.158 1478.54 270.862C1480.56 262.717 1482.46 254.407 1480.96 245.96C1480.63 244.099 1483.47 243.303 1483.81 245.176C1485.16 252.811 1484.09 260.739 1482.38 268.242C1481.39 272.61 1479.89 276.613 1480.81 281.205C1481.79 286.04 1486.78 287.535 1491.13 286.534C1495.91 285.431 1498.8 280.223 1500.69 276.154C1504.75 267.433 1505.33 256.927 1503.64 247.557C1503.31 245.696 1506.15 244.901 1506.49 246.773Z" fill="#1D1D1D"/>
<path d="M1512.37 242.689C1506.57 251.217 1492.46 252.119 1492.46 252.119C1492.46 252.119 1494.76 248.594 1492.46 244.985C1492.46 244.985 1490.39 249.331 1486.13 251.299L1478.58 242.689" fill="#B7D9D5"/>
<path d="M1513.64 243.433C1508.79 249.975 1500.4 253.028 1492.47 253.595C1491.33 253.676 1490.66 252.287 1491.19 251.374C1492.22 249.616 1492.19 247.84 1491.19 245.73H1493.74C1492.24 248.702 1489.77 251.009 1486.87 252.573C1486.31 252.874 1485.53 252.849 1485.08 252.343C1482.57 249.472 1480.05 246.603 1477.54 243.733C1476.29 242.307 1478.37 240.211 1479.63 241.645C1482.14 244.516 1484.65 247.385 1487.17 250.256C1486.57 250.178 1485.98 250.101 1485.38 250.024C1487.87 248.68 1489.91 246.783 1491.19 244.24C1491.67 243.296 1493.28 243.256 1493.74 244.24C1495.1 247.124 1495.42 250 1493.74 252.863C1493.31 252.123 1492.89 251.382 1492.47 250.642C1499.25 250.157 1506.93 247.556 1511.09 241.944C1512.21 240.433 1514.78 241.902 1513.64 243.433Z" fill="#1D1D1D"/>
<path d="M104.96 264.008H35.328V277.448C39.68 277.533 46.208 277.576 54.912 277.576C69.9307 277.576 85.2053 277.32 100.736 276.808V301.896C85.2053 301.299 68.8213 301 51.584 301C44.416 301 38.9973 301.043 35.328 301.128V333H5.12C5.80267 316.445 6.144 300.957 6.144 286.536C6.144 272.115 5.80267 256.627 5.12 240.072H104.96V264.008ZM145.325 281.8C145.24 286.92 145.197 294.771 145.197 305.352C145.197 318.067 145.282 327.283 145.453 333H115.245L115.373 318.536C115.544 302.664 115.629 290.419 115.629 281.8C115.629 273.608 115.544 262.003 115.373 246.984L115.245 233.16H145.453C145.282 245.277 145.197 255.176 145.197 262.856C145.197 271.389 145.24 277.704 145.325 281.8ZM237.793 311.752C237.793 314.653 238.134 316.701 238.817 317.896C239.5 319.091 240.865 319.944 242.913 320.456L242.401 332.488C239.67 332.915 237.281 333.213 235.233 333.384C233.27 333.555 230.625 333.64 227.297 333.64C219.958 333.64 215.094 332.019 212.705 328.776C210.316 325.448 209.121 321.224 209.121 316.104V312.904C206.646 319.901 203.02 325.107 198.241 328.52C193.548 331.933 187.532 333.64 180.193 333.64C171.66 333.64 165.217 331.933 160.865 328.52C156.598 325.107 154.465 320.029 154.465 313.288C154.465 307.741 156.3 303.389 159.969 300.232C163.638 297.075 169.313 294.899 176.993 293.704C170.508 289.096 164.022 285.085 157.537 281.672C162.657 275.187 168.502 270.28 175.073 266.952C181.644 263.539 189.622 261.832 199.009 261.832C212.15 261.832 221.878 264.691 228.193 270.408C234.593 276.04 237.793 284.744 237.793 296.52V311.752ZM201.697 284.36C197.345 284.36 193.505 285.085 190.177 286.536C186.849 287.987 183.862 290.163 181.217 293.064C186.337 292.467 192.737 292.168 200.417 292.168C203.574 292.168 205.793 291.784 207.073 291.016C208.353 290.248 208.993 289.267 208.993 288.072C208.993 287.048 208.353 286.195 207.073 285.512C205.793 284.744 204.001 284.36 201.697 284.36ZM188.257 312.776C193.036 312.776 197.345 311.88 201.185 310.088C205.025 308.211 207.67 305.779 209.121 302.792V299.464C207.073 300.488 204.812 301.299 202.337 301.896C199.862 302.408 196.876 302.92 193.377 303.432L188.769 304.2C183.99 305.139 181.601 306.76 181.601 309.064C181.601 311.539 183.82 312.776 188.257 312.776ZM291.964 334.28C284.796 334.28 277.5 333.299 270.076 331.336C262.737 329.288 255.825 326.216 249.34 322.12L262.78 303.816C266.705 306.632 271.441 308.851 276.988 310.472C282.535 312.008 287.313 312.776 291.324 312.776C295.164 312.776 298.108 312.264 300.156 311.24C302.289 310.131 303.356 308.723 303.356 307.016C303.356 305.651 302.844 304.584 301.82 303.816C300.796 303.048 299.388 302.664 297.596 302.664C296.487 302.664 295.207 302.707 293.756 302.792C292.391 302.877 291.281 302.963 290.428 303.048C285.991 303.56 281.425 303.816 276.732 303.816C269.137 303.816 262.951 302.408 258.172 299.592C253.479 296.691 251.132 291.997 251.132 285.512C251.132 278.003 254.673 272.2 261.756 268.104C268.839 263.923 279.249 261.832 292.988 261.832C299.729 261.832 306.513 262.813 313.34 264.776C320.252 266.653 326.353 269.512 331.644 273.352L316.924 288.2C312.06 285.64 307.495 283.848 303.228 282.824C299.047 281.715 294.823 281.16 290.556 281.16C287.569 281.16 285.009 281.757 282.876 282.952C280.743 284.147 279.676 285.512 279.676 287.048C279.676 288.243 280.103 289.181 280.956 289.864C281.895 290.547 283.089 290.888 284.54 290.888C285.991 290.888 287.996 290.76 290.556 290.504C296.785 290.077 301.436 289.864 304.508 289.864C313.383 289.864 320.252 291.357 325.116 294.344C329.98 297.331 332.412 301.896 332.412 308.04C332.412 317.256 328.828 323.955 321.66 328.136C314.492 332.232 304.593 334.28 291.964 334.28ZM391.29 333C391.802 320.456 392.058 308.893 392.058 298.312C392.058 294.557 391.119 291.571 389.242 289.352C387.45 287.133 385.146 286.024 382.33 286.024C379.343 286.024 376.783 287.475 374.65 290.376C372.602 293.277 371.578 297.245 371.578 302.28L371.45 302.024C371.45 315.933 371.621 326.259 371.962 333H341.37C342.053 320.712 342.394 304.072 342.394 283.08C342.394 262.088 342.053 245.448 341.37 233.16H371.834L371.962 272.584L371.834 279.368C373.882 273.395 376.911 269 380.922 266.184C385.018 263.283 389.626 261.832 394.746 261.832C399.866 261.832 404.303 262.984 408.058 265.288C411.813 267.507 414.629 270.536 416.506 274.376C418.469 278.216 419.45 282.525 419.45 287.304V305.736C419.45 317.085 419.663 326.173 420.09 333H391.29ZM484.13 301.896H429.09V276.936H484.13V301.896ZM549.44 334.28C530.155 334.28 515.947 330.184 506.816 321.992C497.685 313.8 493.12 302.109 493.12 286.92C493.12 271.645 497.685 259.571 506.816 250.696C515.947 241.821 530.155 237.384 549.44 237.384C576.405 237.384 594.453 246.643 603.584 265.16C595.904 267.805 586.901 271.773 576.576 277.064C574.101 272.285 570.176 268.744 564.8 266.44C559.509 264.136 554.091 262.984 548.544 262.984C540.352 262.984 534.251 265.16 530.24 269.512C526.229 273.779 524.224 279.069 524.224 285.384C524.224 292.211 526.357 297.8 530.624 302.152C534.976 306.419 541.589 308.552 550.464 308.552C557.547 308.552 563.179 307.4 567.36 305.096C571.541 302.707 574.613 298.952 576.576 293.832C583.573 297.587 592.533 301.811 603.456 306.504C599.189 316.829 592.064 324.04 582.08 328.136C572.096 332.232 561.216 334.28 549.44 334.28ZM695.918 311.752C695.918 314.653 696.259 316.701 696.942 317.896C697.625 319.091 698.99 319.944 701.038 320.456L700.526 332.488C697.795 332.915 695.406 333.213 693.358 333.384C691.395 333.555 688.75 333.64 685.422 333.64C678.083 333.64 673.219 332.019 670.83 328.776C668.441 325.448 667.246 321.224 667.246 316.104V312.904C664.771 319.901 661.145 325.107 656.366 328.52C651.673 331.933 645.657 333.64 638.318 333.64C629.785 333.64 623.342 331.933 618.99 328.52C614.723 325.107 612.59 320.029 612.59 313.288C612.59 307.741 614.425 303.389 618.094 300.232C621.763 297.075 627.438 294.899 635.118 293.704C628.633 289.096 622.147 285.085 615.662 281.672C620.782 275.187 626.627 270.28 633.198 266.952C639.769 263.539 647.747 261.832 657.134 261.832C670.275 261.832 680.003 264.691 686.318 270.408C692.718 276.04 695.918 284.744 695.918 296.52V311.752ZM659.822 284.36C655.47 284.36 651.63 285.085 648.302 286.536C644.974 287.987 641.987 290.163 639.342 293.064C644.462 292.467 650.862 292.168 658.542 292.168C661.699 292.168 663.918 291.784 665.198 291.016C666.478 290.248 667.118 289.267 667.118 288.072C667.118 287.048 666.478 286.195 665.198 285.512C663.918 284.744 662.126 284.36 659.822 284.36ZM646.382 312.776C651.161 312.776 655.47 311.88 659.31 310.088C663.15 308.211 665.795 305.779 667.246 302.792V299.464C665.198 300.488 662.937 301.299 660.462 301.896C657.987 302.408 655.001 302.92 651.502 303.432L646.894 304.2C642.115 305.139 639.726 306.76 639.726 309.064C639.726 311.539 641.945 312.776 646.382 312.776ZM738.441 282.056C742.025 269.171 750.942 262.728 765.193 262.728C767.668 262.728 770.057 262.899 772.361 263.24L768.265 291.912C762.121 289.608 757.086 288.456 753.161 288.456C748.297 288.456 744.713 289.907 742.409 292.808C740.105 295.709 738.953 299.592 738.953 304.456V304.328L738.825 312.776C738.825 318.835 738.996 325.576 739.337 333H708.745C709.428 320.712 709.769 309.107 709.769 298.184C709.769 287.261 709.428 275.571 708.745 263.112C714.377 263.368 718.686 263.496 721.673 263.496C724.83 263.496 729.14 263.368 734.601 263.112L738.441 282.056ZM862.457 233.416C861.945 249.288 861.689 265.885 861.689 283.208C861.689 300.36 861.945 316.957 862.457 333H833.529L833.913 317.64C831.438 323.357 827.854 327.581 823.161 330.312C818.468 332.957 812.921 334.28 806.521 334.28C800.974 334.28 795.982 332.701 791.545 329.544C787.108 326.387 783.652 322.12 781.177 316.744C778.702 311.283 777.465 305.309 777.465 298.824C777.465 292.424 778.702 286.408 781.177 280.776C783.652 275.059 787.108 270.493 791.545 267.08C796.068 263.581 801.188 261.832 806.905 261.832C813.561 261.832 819.236 263.24 823.929 266.056C828.708 268.787 832.249 273.053 834.553 278.856C834.553 273.992 834.382 266.184 834.041 255.432C833.7 245.021 833.529 237.683 833.529 233.416H862.457ZM819.961 312.776C824.142 312.776 827.556 311.624 830.201 309.32C832.846 306.931 834.169 303.176 834.169 298.056C834.169 293.533 832.846 290.205 830.201 288.072C827.556 285.939 824.228 284.872 820.217 284.872C816.377 284.872 813.134 286.109 810.489 288.584C807.929 290.973 806.649 294.131 806.649 298.056C806.649 302.408 807.844 305.949 810.233 308.68C812.622 311.411 815.865 312.776 819.961 312.776ZM914.089 334.28C906.921 334.28 899.625 333.299 892.201 331.336C884.862 329.288 877.95 326.216 871.465 322.12L884.905 303.816C888.83 306.632 893.566 308.851 899.113 310.472C904.66 312.008 909.438 312.776 913.449 312.776C917.289 312.776 920.233 312.264 922.281 311.24C924.414 310.131 925.481 308.723 925.481 307.016C925.481 305.651 924.969 304.584 923.945 303.816C922.921 303.048 921.513 302.664 919.721 302.664C918.612 302.664 917.332 302.707 915.881 302.792C914.516 302.877 913.406 302.963 912.553 303.048C908.116 303.56 903.55 303.816 898.857 303.816C891.262 303.816 885.076 302.408 880.297 299.592C875.604 296.691 873.257 291.997 873.257 285.512C873.257 278.003 876.798 272.2 883.881 268.104C890.964 263.923 901.374 261.832 915.113 261.832C921.854 261.832 928.638 262.813 935.465 264.776C942.377 266.653 948.478 269.512 953.769 273.352L939.049 288.2C934.185 285.64 929.62 283.848 925.353 282.824C921.172 281.715 916.948 281.16 912.681 281.16C909.694 281.16 907.134 281.757 905.001 282.952C902.868 284.147 901.801 285.512 901.801 287.048C901.801 288.243 902.228 289.181 903.081 289.864C904.02 290.547 905.214 290.888 906.665 290.888C908.116 290.888 910.121 290.76 912.681 290.504C918.91 290.077 923.561 289.864 926.633 289.864C935.508 289.864 942.377 291.357 947.241 294.344C952.105 297.331 954.537 301.896 954.537 308.04C954.537 317.256 950.953 323.955 943.785 328.136C936.617 332.232 926.718 334.28 914.089 334.28ZM1069.89 333C1068.27 328.136 1066.09 322.035 1063.36 314.696H1022.53L1016.13 333H984L1019.84 240.072H1066.94L1103.04 333H1069.89ZM1056.06 294.728C1052.82 285.768 1049.49 276.808 1046.08 267.848L1043.01 259.528C1040.02 267.293 1035.63 279.027 1029.82 294.728H1056.06ZM1167.98 240.2C1184.96 240.2 1196.78 243.229 1203.44 249.288C1210.09 255.261 1213.42 263.709 1213.42 274.632C1213.42 282.141 1212.1 288.541 1209.45 293.832C1206.81 299.037 1202.16 303.133 1195.5 306.12C1188.85 309.021 1179.67 310.472 1167.98 310.472H1141.36V333H1109.87C1110.55 316.445 1110.89 300.957 1110.89 286.536C1110.89 272.115 1110.55 256.627 1109.87 240.072H1141.36V240.2H1167.98ZM1159.02 285.768C1166.1 285.768 1171.4 285.512 1174.89 285C1178.48 284.403 1180.95 283.379 1182.32 281.928C1183.77 280.477 1184.49 278.344 1184.49 275.528C1184.49 272.712 1183.81 270.621 1182.45 269.256C1181.17 267.805 1178.73 266.824 1175.15 266.312C1171.65 265.8 1166.28 265.544 1159.02 265.544H1141.36V285.768H1159.02ZM1297.99 265.544C1287.83 265.032 1280.32 264.733 1275.46 264.648V308.424C1280.41 308.339 1287.92 308.04 1297.99 307.528V333H1223.62V307.528C1233.43 308.04 1240.9 308.339 1246.02 308.424V264.648C1240.9 264.733 1233.43 265.032 1223.62 265.544V240.072H1297.99V265.544Z" fill="#007D9C" fill-opacity="0.75"/>
</svg>
